<svg xmlns="http://www.w3.org/2000/svg" xmlns:xlink="http://www.w3.org/1999/xlink" width="500" zoomAndPan="magnify" viewBox="0 0 375 374.999991" height="500" preserveAspectRatio="xMidYMid meet" version="1.0"><defs><g/><clipPath id="6a9a090e7f"><path d="M 134 90.398438 L 241.082031 90.398438 L 241.082031 205.898438 L 134 205.898438 Z M 134 90.398438 " clip-rule="nonzero"/></clipPath><clipPath id="615daee7f4"><path d="M 179.277344 124.160156 L 197.515625 124.160156 L 197.515625 144.410156 L 179.277344 144.410156 Z M 179.277344 124.160156 " clip-rule="nonzero"/></clipPath><clipPath id="e96ca6381a"><path d="M 191.464844 133.648438 L 201.765625 133.648438 L 201.765625 144.410156 L 191.464844 144.410156 Z M 191.464844 133.648438 " clip-rule="nonzero"/></clipPath><clipPath id="f6697fc0cc"><path d="M 197.984375 133.648438 L 201.765625 133.648438 L 201.765625 137.621094 L 197.984375 137.621094 Z M 197.984375 133.648438 " clip-rule="nonzero"/></clipPath><clipPath id="4c3859b671"><path d="M 109.15625 211.5625 L 127.394531 211.5625 L 127.394531 231.8125 L 109.15625 231.8125 Z M 109.15625 211.5625 " clip-rule="nonzero"/></clipPath><clipPath id="378316a731"><path d="M 121.34375 221.050781 L 131.644531 221.050781 L 131.644531 231.8125 L 121.34375 231.8125 Z M 121.34375 221.050781 " clip-rule="nonzero"/></clipPath><clipPath id="4deddcde50"><path d="M 127.863281 221.050781 L 131.644531 221.050781 L 131.644531 225.023438 L 127.863281 225.023438 Z M 127.863281 221.050781 " clip-rule="nonzero"/></clipPath></defs><g clip-path="url(#6a9a090e7f)"><path fill="#31b3cd" d="M 138.082031 201.472656 L 149.191406 166.945312 C 149.199219 166.929688 149.203125 166.914062 149.207031 166.898438 L 149.4375 166.105469 C 149.550781 165.707031 149.5 165.28125 149.292969 164.925781 C 145.105469 157.707031 142.890625 149.453125 142.890625 141.058594 C 142.890625 114.796875 164.25 93.429688 190.507812 93.429688 C 216.765625 93.429688 238.125 114.796875 238.125 141.058594 C 238.125 167.320312 216.765625 188.6875 190.507812 188.6875 C 184.246094 188.6875 178.15625 187.488281 172.414062 185.128906 C 171.78125 184.867188 171.074219 185.070312 170.664062 185.574219 C 170.589844 185.597656 170.515625 185.625 170.445312 185.660156 Z M 134.558594 205.535156 C 134.839844 205.78125 135.195312 205.90625 135.550781 205.90625 C 135.777344 205.90625 136.003906 205.855469 136.214844 205.753906 L 171.773438 188.382812 C 171.863281 188.339844 171.945312 188.289062 172.019531 188.234375 C 177.90625 190.542969 184.121094 191.714844 190.507812 191.714844 C 197.34375 191.714844 203.976562 190.375 210.222656 187.734375 C 216.25 185.183594 221.667969 181.527344 226.320312 176.878906 C 230.96875 172.226562 234.621094 166.808594 237.171875 160.777344 C 239.8125 154.53125 241.152344 147.894531 241.152344 141.058594 C 241.152344 134.222656 239.8125 127.585938 237.171875 121.339844 C 234.621094 115.308594 230.96875 109.890625 226.320312 105.238281 C 221.667969 100.585938 216.25 96.933594 210.222656 94.382812 C 203.976562 91.742188 197.34375 90.402344 190.507812 90.402344 C 183.671875 90.402344 177.039062 91.742188 170.792969 94.382812 C 164.765625 96.933594 159.347656 100.585938 154.699219 105.238281 C 150.046875 109.890625 146.394531 115.308594 143.84375 121.339844 C 141.203125 127.585938 139.863281 134.222656 139.863281 141.058594 C 139.863281 145.589844 140.464844 150.085938 141.644531 154.417969 C 142.734375 158.414062 144.316406 162.265625 146.351562 165.878906 L 146.304688 166.039062 L 134.109375 203.929688 C 133.921875 204.503906 134.101562 205.140625 134.558594 205.535156 Z M 154.332031 166.753906 L 144.976562 191.878906 C 144.570312 192.976562 145.730469 193.996094 146.765625 193.453125 L 170.789062 180.824219 C 176.730469 183.777344 183.425781 185.4375 190.507812 185.4375 C 215.011719 185.4375 234.875 165.566406 234.875 141.058594 C 234.875 116.550781 215.011719 96.679688 190.507812 96.679688 C 166.003906 96.679688 146.140625 116.550781 146.140625 141.058594 C 146.140625 150.632812 149.175781 159.503906 154.332031 166.753906 " fill-opacity="1" fill-rule="nonzero"/></g><path fill="#ffffff" d="M 182.226562 147.773438 C 183.570312 147.773438 184.660156 148.863281 184.660156 150.207031 C 184.660156 151.550781 183.570312 152.640625 182.226562 152.640625 C 180.882812 152.640625 179.792969 151.550781 179.792969 150.207031 C 179.792969 148.863281 180.882812 147.773438 182.226562 147.773438 Z M 190.507812 147.773438 C 191.851562 147.773438 192.941406 148.863281 192.941406 150.207031 C 192.941406 151.550781 191.851562 152.640625 190.507812 152.640625 C 189.164062 152.640625 188.074219 151.550781 188.074219 150.207031 C 188.074219 148.863281 189.164062 147.773438 190.507812 147.773438 Z M 198.789062 147.773438 C 200.132812 147.773438 201.222656 148.863281 201.222656 150.207031 C 201.222656 151.550781 200.132812 152.640625 198.789062 152.640625 C 197.445312 152.640625 196.355469 151.550781 196.355469 150.207031 C 196.355469 148.863281 197.445312 147.773438 198.789062 147.773438 Z M 178.546875 161.300781 L 177.5 161.300781 C 175.453125 161.300781 174.082031 160.925781 173.382812 160.171875 C 172.683594 159.414062 172.335938 157.851562 172.335938 155.480469 L 172.335938 149.324219 C 172.335938 146.605469 171.957031 144.671875 171.203125 143.515625 C 170.449219 142.363281 169.117188 141.527344 167.21875 141.019531 C 169.136719 140.546875 170.46875 139.730469 171.214844 138.578125 C 171.960938 137.425781 172.335938 135.484375 172.335938 132.757812 L 172.335938 126.582031 C 172.335938 124.214844 172.6875 122.660156 173.394531 121.921875 C 174.105469 121.183594 175.488281 120.8125 177.550781 120.8125 L 178.546875 120.8125 L 178.546875 116.996094 L 177.449219 116.996094 C 175.609375 116.996094 174.175781 117.09375 173.136719 117.289062 C 172.097656 117.484375 171.222656 117.804688 170.507812 118.246094 C 169.574219 118.824219 168.914062 119.652344 168.53125 120.722656 C 168.148438 121.796875 167.957031 123.59375 167.957031 126.113281 L 167.957031 132.328125 C 167.957031 134.847656 167.496094 136.621094 166.570312 137.652344 C 165.644531 138.683594 164.070312 139.199219 161.847656 139.199219 C 161.726562 139.199219 161.546875 139.191406 161.300781 139.171875 C 161.054688 139.15625 160.871094 139.148438 160.753906 139.148438 L 160.753906 142.96875 C 160.886719 142.96875 161.082031 142.960938 161.339844 142.941406 C 161.59375 142.925781 161.777344 142.917969 161.898438 142.917969 C 164.105469 142.917969 165.667969 143.429688 166.582031 144.457031 C 167.5 145.480469 167.957031 147.238281 167.957031 149.730469 L 167.957031 155.988281 C 167.957031 158.5 168.148438 160.28125 168.53125 161.34375 C 168.914062 162.402344 169.574219 163.222656 170.507812 163.800781 C 171.273438 164.273438 172.195312 164.613281 173.277344 164.816406 C 174.355469 165.019531 175.796875 165.121094 177.601562 165.121094 L 178.546875 165.121094 Z M 202.46875 120.8125 L 203.515625 120.8125 C 205.5625 120.8125 206.933594 121.191406 207.632812 121.945312 C 208.332031 122.699219 208.679688 124.265625 208.679688 126.636719 L 208.679688 132.789062 C 208.679688 135.507812 209.058594 137.445312 209.8125 138.601562 C 210.570312 139.753906 211.894531 140.585938 213.796875 141.097656 C 211.878906 141.570312 210.546875 142.386719 209.800781 143.535156 C 209.054688 144.691406 208.679688 146.628906 208.679688 149.359375 L 208.679688 155.535156 C 208.679688 157.902344 208.328125 159.457031 207.621094 160.195312 C 206.914062 160.933594 205.527344 161.300781 203.464844 161.300781 L 202.46875 161.300781 L 202.46875 165.121094 L 203.566406 165.121094 C 205.40625 165.121094 206.84375 165.023438 207.878906 164.828125 C 208.917969 164.632812 209.792969 164.3125 210.507812 163.871094 C 211.441406 163.292969 212.101562 162.464844 212.484375 161.390625 C 212.867188 160.320312 213.058594 158.523438 213.058594 156.003906 L 213.058594 149.789062 C 213.058594 147.269531 213.519531 145.496094 214.445312 144.464844 C 215.371094 143.433594 216.945312 142.917969 219.167969 142.917969 C 219.289062 142.917969 219.46875 142.925781 219.714844 142.941406 C 219.960938 142.960938 220.144531 142.96875 220.261719 142.96875 L 220.261719 139.148438 C 220.128906 139.148438 219.933594 139.15625 219.679688 139.175781 C 219.421875 139.191406 219.238281 139.199219 219.117188 139.199219 C 216.910156 139.199219 215.351562 138.6875 214.433594 137.660156 C 213.515625 136.636719 213.058594 134.875 213.058594 132.386719 L 213.058594 126.128906 C 213.058594 123.621094 212.867188 121.832031 212.484375 120.773438 C 212.101562 119.710938 211.441406 118.894531 210.507812 118.320312 C 209.742188 117.84375 208.820312 117.503906 207.738281 117.300781 C 206.660156 117.097656 205.21875 116.996094 203.414062 116.996094 L 202.46875 116.996094 L 202.46875 120.8125 " fill-opacity="1" fill-rule="nonzero"/><g clip-path="url(#615daee7f4)"><path fill="#ffffff" d="M 192.617188 139.570312 L 184.523438 139.570312 L 184.523438 128.992188 L 197.492188 128.992188 L 197.492188 124.179688 L 184.523438 124.179688 L 184.523438 124.160156 L 179.277344 124.160156 L 179.277344 144.410156 L 195.140625 144.410156 L 192.617188 139.570312 " fill-opacity="1" fill-rule="nonzero"/></g><g clip-path="url(#e96ca6381a)"><path fill="#ffffff" d="M 191.488281 133.664062 L 197.097656 144.410156 L 201.761719 144.410156 L 196.152344 133.664062 L 191.488281 133.664062 " fill-opacity="1" fill-rule="nonzero"/></g><path fill="#ffffff" d="M 189.773438 137.613281 L 191.488281 137.613281 L 189.425781 133.664062 L 187.710938 133.664062 L 189.773438 137.613281 " fill-opacity="1" fill-rule="nonzero"/><g clip-path="url(#f6697fc0cc)"><path fill="#ffffff" d="M 201.765625 137.613281 L 199.707031 133.664062 L 197.992188 133.664062 L 200.050781 137.613281 L 201.765625 137.613281 " fill-opacity="1" fill-rule="nonzero"/></g><g fill="#ffffff" fill-opacity="1"><g transform="translate(115.751519, 231.501371)"><g/></g></g><g fill="#ffffff" fill-opacity="1"><g transform="translate(124.717924, 231.501371)"><g/></g></g><g fill="#ffffff" fill-opacity="1"><g transform="translate(133.681205, 231.501371)"><g><path d="M 15.796875 -4.59375 L 5.546875 -4.59375 L 3.59375 0 L 0.03125 0 L 9 -20.328125 L 12.515625 -20.328125 L 21.390625 0 L 17.734375 0 Z M 14.484375 -7.640625 L 10.65625 -16.65625 L 6.828125 -7.640625 Z M 14.484375 -7.640625 "/></g></g></g><g fill="#ffffff" fill-opacity="1"><g transform="translate(156.575091, 231.501371)"><g><path d="M 2.671875 -20.328125 L 11.5 -20.328125 C 13.601562 -20.328125 15.265625 -19.875 16.484375 -18.96875 C 17.703125 -18.070312 18.3125 -16.828125 18.3125 -15.234375 C 18.3125 -14.097656 17.992188 -13.128906 17.359375 -12.328125 C 16.722656 -11.523438 15.851562 -10.988281 14.75 -10.71875 C 16.101562 -10.476562 17.164062 -9.90625 17.9375 -9 C 18.71875 -8.09375 19.109375 -6.953125 19.109375 -5.578125 C 19.109375 -3.835938 18.445312 -2.472656 17.125 -1.484375 C 15.8125 -0.492188 14.003906 0 11.703125 0 L 2.671875 0 Z M 6.09375 -17.28125 L 6.09375 -11.90625 L 11.328125 -11.90625 C 12.410156 -11.90625 13.257812 -12.144531 13.875 -12.625 C 14.5 -13.113281 14.8125 -13.78125 14.8125 -14.625 C 14.8125 -15.476562 14.503906 -16.132812 13.890625 -16.59375 C 13.285156 -17.050781 12.429688 -17.28125 11.328125 -17.28125 Z M 6.09375 -8.890625 L 6.09375 -3.046875 L 11.328125 -3.046875 C 12.679688 -3.046875 13.726562 -3.300781 14.46875 -3.8125 C 15.21875 -4.332031 15.59375 -5.066406 15.59375 -6.015625 C 15.59375 -6.898438 15.210938 -7.597656 14.453125 -8.109375 C 13.703125 -8.628906 12.660156 -8.890625 11.328125 -8.890625 Z M 6.09375 -8.890625 "/></g></g></g><g fill="#ffffff" fill-opacity="1"><g transform="translate(178.540483, 231.501371)"><g><path d="M 11.671875 -20.40625 C 13.097656 -20.40625 14.492188 -20.128906 15.859375 -19.578125 C 17.222656 -19.023438 18.398438 -18.257812 19.390625 -17.28125 L 17.390625 -14.78125 C 16.648438 -15.570312 15.773438 -16.195312 14.765625 -16.65625 C 13.765625 -17.125 12.753906 -17.359375 11.734375 -17.359375 C 9.703125 -17.359375 7.984375 -16.664062 6.578125 -15.28125 C 5.171875 -13.894531 4.46875 -12.207031 4.46875 -10.21875 C 4.46875 -8.207031 5.171875 -6.507812 6.578125 -5.125 C 7.984375 -3.738281 9.703125 -3.046875 11.734375 -3.046875 C 13.835938 -3.046875 15.722656 -3.847656 17.390625 -5.453125 L 19.421875 -3.1875 C 18.378906 -2.164062 17.160156 -1.351562 15.765625 -0.75 C 14.367188 -0.15625 12.960938 0.140625 11.546875 0.140625 C 8.566406 0.140625 6.0625 -0.847656 4.03125 -2.828125 C 2 -4.816406 0.984375 -7.269531 0.984375 -10.1875 C 0.984375 -13.070312 2.015625 -15.492188 4.078125 -17.453125 C 6.140625 -19.421875 8.671875 -20.40625 11.671875 -20.40625 Z M 11.671875 -20.40625 "/></g></g></g><g fill="#ffffff" fill-opacity="1"><g transform="translate(200.244731, 231.501371)"><g><path d="M 4.09375 -17.453125 C 6.164062 -19.421875 8.71875 -20.40625 11.75 -20.40625 C 14.789062 -20.40625 17.347656 -19.421875 19.421875 -17.453125 C 21.492188 -15.492188 22.53125 -13.0625 22.53125 -10.15625 C 22.53125 -7.257812 21.492188 -4.816406 19.421875 -2.828125 C 17.347656 -0.847656 14.789062 0.140625 11.75 0.140625 C 8.71875 0.140625 6.164062 -0.847656 4.09375 -2.828125 C 2.019531 -4.816406 0.984375 -7.257812 0.984375 -10.15625 C 0.984375 -13.0625 2.019531 -15.492188 4.09375 -17.453125 Z M 11.78125 -17.328125 C 9.769531 -17.328125 8.046875 -16.632812 6.609375 -15.25 C 5.179688 -13.875 4.46875 -12.175781 4.46875 -10.15625 C 4.46875 -8.144531 5.1875 -6.4375 6.625 -5.03125 C 8.070312 -3.632812 9.789062 -2.9375 11.78125 -2.9375 C 13.78125 -2.9375 15.484375 -3.632812 16.890625 -5.03125 C 18.304688 -6.4375 19.015625 -8.144531 19.015625 -10.15625 C 19.015625 -12.175781 18.304688 -13.875 16.890625 -15.25 C 15.484375 -16.632812 13.78125 -17.328125 11.78125 -17.328125 Z M 11.78125 -17.328125 "/></g></g></g><g fill="#ffffff" fill-opacity="1"><g transform="translate(225.227748, 231.501371)"><g><path d="M 2.671875 -20.328125 L 11 -20.328125 C 14.039062 -20.328125 16.550781 -19.367188 18.53125 -17.453125 C 20.519531 -15.535156 21.515625 -13.101562 21.515625 -10.15625 C 21.515625 -7.21875 20.515625 -4.789062 18.515625 -2.875 C 16.523438 -0.957031 13.992188 0 10.921875 0 L 2.671875 0 Z M 6.09375 -17.25 L 6.09375 -3.078125 L 11.09375 -3.078125 C 13.082031 -3.078125 14.738281 -3.738281 16.0625 -5.0625 C 17.394531 -6.382812 18.0625 -8.070312 18.0625 -10.125 C 18.0625 -12.175781 17.378906 -13.875 16.015625 -15.21875 C 14.648438 -16.570312 12.957031 -17.25 10.9375 -17.25 Z M 6.09375 -17.25 "/></g></g></g><g fill="#ffffff" fill-opacity="1"><g transform="translate(249.195217, 231.501371)"><g><path d="M 17.1875 -17.25 L 6.09375 -17.25 L 6.09375 -11.75 L 16.03125 -11.75 L 16.03125 -8.6875 L 6.09375 -8.6875 L 6.09375 -3.078125 L 17.53125 -3.078125 L 17.53125 0 L 2.671875 0 L 2.671875 -20.328125 L 17.1875 -20.328125 Z M 17.1875 -17.25 "/></g></g></g><g fill="#5ce1e6" fill-opacity="1"><g transform="translate(72.319651, 248.675667)"><g><path d="M 7.09375 -7.515625 L 2.65625 -7.515625 L 2.65625 -4.953125 L 6.671875 -4.953125 L 6.671875 -3.625 L 2.65625 -3.625 L 2.65625 0 L 1.15625 0 L 1.15625 -8.84375 L 7.109375 -8.84375 Z M 7.09375 -7.515625 "/></g></g></g><g fill="#5ce1e6" fill-opacity="1"><g transform="translate(82.979139, 248.675667)"><g><path d="M 8.6875 -8.84375 L 8.6875 -3.671875 C 8.6875 -2.515625 8.34375 -1.601562 7.65625 -0.9375 C 6.976562 -0.269531 6.039062 0.0625 4.84375 0.0625 C 3.644531 0.0625 2.703125 -0.269531 2.015625 -0.9375 C 1.328125 -1.601562 0.984375 -2.515625 0.984375 -3.671875 L 0.984375 -8.84375 L 2.484375 -8.84375 L 2.484375 -3.671875 C 2.484375 -2.921875 2.691406 -2.332031 3.109375 -1.90625 C 3.535156 -1.488281 4.117188 -1.28125 4.859375 -1.28125 C 5.578125 -1.28125 6.144531 -1.488281 6.5625 -1.90625 C 6.976562 -2.332031 7.1875 -2.921875 7.1875 -3.671875 L 7.1875 -8.84375 Z M 8.6875 -8.84375 "/></g></g></g><g fill="#5ce1e6" fill-opacity="1"><g transform="translate(96.028429, 248.675667)"><g><path d="M 2.65625 -1.359375 L 6.484375 -1.359375 L 6.484375 0 L 1.15625 0 L 1.15625 -8.84375 L 2.65625 -8.84375 Z M 2.65625 -1.359375 "/></g></g></g><g fill="#5ce1e6" fill-opacity="1"><g transform="translate(106.169498, 248.675667)"><g><path d="M 2.65625 -1.359375 L 6.484375 -1.359375 L 6.484375 0 L 1.15625 0 L 1.15625 -8.84375 L 2.65625 -8.84375 Z M 2.65625 -1.359375 "/></g></g></g><g fill="#5ce1e6" fill-opacity="1"><g transform="translate(116.310571, 248.675667)"><g/></g></g><g fill="#5ce1e6" fill-opacity="1"><g transform="translate(122.961768, 248.675667)"><g><path d="M 4.0625 -8.90625 C 5.21875 -8.90625 6.253906 -8.601562 7.171875 -8 L 6.546875 -6.6875 C 5.648438 -7.238281 4.785156 -7.515625 3.953125 -7.515625 C 3.503906 -7.515625 3.148438 -7.429688 2.890625 -7.265625 C 2.640625 -7.109375 2.515625 -6.878906 2.515625 -6.578125 C 2.515625 -6.285156 2.628906 -6.035156 2.859375 -5.828125 C 3.097656 -5.628906 3.394531 -5.476562 3.75 -5.375 C 4.101562 -5.28125 4.488281 -5.160156 4.90625 -5.015625 C 5.320312 -4.867188 5.703125 -4.710938 6.046875 -4.546875 C 6.398438 -4.378906 6.691406 -4.117188 6.921875 -3.765625 C 7.160156 -3.421875 7.28125 -3 7.28125 -2.5 C 7.28125 -1.726562 6.96875 -1.109375 6.34375 -0.640625 C 5.726562 -0.179688 4.925781 0.046875 3.9375 0.046875 C 3.269531 0.046875 2.617188 -0.078125 1.984375 -0.328125 C 1.347656 -0.578125 0.796875 -0.921875 0.328125 -1.359375 L 0.96875 -2.640625 C 1.414062 -2.222656 1.90625 -1.90625 2.4375 -1.6875 C 2.976562 -1.46875 3.488281 -1.359375 3.96875 -1.359375 C 4.488281 -1.359375 4.894531 -1.453125 5.1875 -1.640625 C 5.476562 -1.828125 5.625 -2.085938 5.625 -2.421875 C 5.625 -2.722656 5.503906 -2.976562 5.265625 -3.1875 C 5.035156 -3.394531 4.742188 -3.546875 4.390625 -3.640625 C 4.035156 -3.742188 3.648438 -3.863281 3.234375 -4 C 2.816406 -4.132812 2.429688 -4.28125 2.078125 -4.4375 C 1.734375 -4.59375 1.441406 -4.84375 1.203125 -5.1875 C 0.960938 -5.539062 0.84375 -5.960938 0.84375 -6.453125 C 0.84375 -7.203125 1.132812 -7.796875 1.71875 -8.234375 C 2.3125 -8.679688 3.09375 -8.90625 4.0625 -8.90625 Z M 4.0625 -8.90625 "/></g></g></g><g fill="#5ce1e6" fill-opacity="1"><g transform="translate(134.215549, 248.675667)"><g><path d="M 7.203125 -7.515625 L 4.40625 -7.515625 L 4.40625 0 L 2.90625 0 L 2.90625 -7.515625 L 0.109375 -7.515625 L 0.109375 -8.84375 L 7.203125 -8.84375 Z M 7.203125 -7.515625 "/></g></g></g><g fill="#5ce1e6" fill-opacity="1"><g transform="translate(144.925622, 248.675667)"><g><path d="M 6.875 -2 L 2.421875 -2 L 1.5625 0 L 0.015625 0 L 3.921875 -8.84375 L 5.453125 -8.84375 L 9.3125 0 L 7.71875 0 Z M 6.3125 -3.328125 L 4.640625 -7.25 L 2.96875 -3.328125 Z M 6.3125 -3.328125 "/></g></g></g><g fill="#5ce1e6" fill-opacity="1"><g transform="translate(157.646158, 248.675667)"><g><path d="M 5.078125 -8.890625 C 5.703125 -8.890625 6.3125 -8.769531 6.90625 -8.53125 C 7.5 -8.289062 8.007812 -7.953125 8.4375 -7.515625 L 7.578125 -6.4375 C 7.253906 -6.78125 6.875 -7.050781 6.4375 -7.25 C 6 -7.457031 5.554688 -7.5625 5.109375 -7.5625 C 4.222656 -7.5625 3.472656 -7.257812 2.859375 -6.65625 C 2.253906 -6.050781 1.953125 -5.316406 1.953125 -4.453125 C 1.953125 -3.578125 2.253906 -2.835938 2.859375 -2.234375 C 3.472656 -1.628906 4.222656 -1.328125 5.109375 -1.328125 C 6.023438 -1.328125 6.847656 -1.675781 7.578125 -2.375 L 8.453125 -1.390625 C 8.003906 -0.941406 7.472656 -0.585938 6.859375 -0.328125 C 6.253906 -0.0664062 5.644531 0.0625 5.03125 0.0625 C 3.726562 0.0625 2.632812 -0.367188 1.75 -1.234375 C 0.875 -2.097656 0.4375 -3.164062 0.4375 -4.4375 C 0.4375 -5.695312 0.882812 -6.753906 1.78125 -7.609375 C 2.675781 -8.460938 3.773438 -8.890625 5.078125 -8.890625 Z M 5.078125 -8.890625 "/></g></g></g><g fill="#5ce1e6" fill-opacity="1"><g transform="translate(169.848277, 248.675667)"><g><path d="M 7.0625 0 L 4.15625 -3.90625 L 2.65625 -2.25 L 2.65625 0 L 1.15625 0 L 1.15625 -8.84375 L 2.65625 -8.84375 L 2.65625 -4.265625 L 6.875 -8.84375 L 8.640625 -8.84375 L 5.203125 -5.0625 L 8.859375 0 Z M 7.0625 0 "/></g></g></g><g fill="#5ce1e6" fill-opacity="1"><g transform="translate(182.315916, 248.675667)"><g/></g></g><g fill="#5ce1e6" fill-opacity="1"><g transform="translate(188.967108, 248.675667)"><g><path d="M 1.15625 -8.84375 L 4.796875 -8.84375 C 6.117188 -8.84375 7.207031 -8.425781 8.0625 -7.59375 C 8.925781 -6.757812 9.359375 -5.703125 9.359375 -4.421875 C 9.359375 -3.140625 8.925781 -2.082031 8.0625 -1.25 C 7.195312 -0.414062 6.09375 0 4.75 0 L 1.15625 0 Z M 2.65625 -7.515625 L 2.65625 -1.34375 L 4.828125 -1.34375 C 5.691406 -1.34375 6.410156 -1.628906 6.984375 -2.203125 C 7.566406 -2.785156 7.859375 -3.519531 7.859375 -4.40625 C 7.859375 -5.300781 7.5625 -6.039062 6.96875 -6.625 C 6.375 -7.21875 5.640625 -7.515625 4.765625 -7.515625 Z M 2.65625 -7.515625 "/></g></g></g><g fill="#5ce1e6" fill-opacity="1"><g transform="translate(202.155484, 248.675667)"><g><path d="M 7.484375 -7.515625 L 2.65625 -7.515625 L 2.65625 -5.125 L 6.984375 -5.125 L 6.984375 -3.78125 L 2.65625 -3.78125 L 2.65625 -1.34375 L 7.640625 -1.34375 L 7.640625 0 L 1.15625 0 L 1.15625 -8.84375 L 7.484375 -8.84375 Z M 7.484375 -7.515625 "/></g></g></g><g fill="#5ce1e6" fill-opacity="1"><g transform="translate(213.839169, 248.675667)"><g><path d="M 5.109375 0 L 3.5625 0 L 0.03125 -8.84375 L 1.640625 -8.84375 L 4.375 -1.65625 L 7.125 -8.84375 L 8.6875 -8.84375 Z M 5.109375 0 "/></g></g></g><g fill="#5ce1e6" fill-opacity="1"><g transform="translate(225.952773, 248.675667)"><g><path d="M 7.484375 -7.515625 L 2.65625 -7.515625 L 2.65625 -5.125 L 6.984375 -5.125 L 6.984375 -3.78125 L 2.65625 -3.78125 L 2.65625 -1.34375 L 7.640625 -1.34375 L 7.640625 0 L 1.15625 0 L 1.15625 -8.84375 L 7.484375 -8.84375 Z M 7.484375 -7.515625 "/></g></g></g><g fill="#5ce1e6" fill-opacity="1"><g transform="translate(237.636458, 248.675667)"><g><path d="M 2.65625 -1.359375 L 6.484375 -1.359375 L 6.484375 0 L 1.15625 0 L 1.15625 -8.84375 L 2.65625 -8.84375 Z M 2.65625 -1.359375 "/></g></g></g><g fill="#5ce1e6" fill-opacity="1"><g transform="translate(247.777525, 248.675667)"><g><path d="M 1.78125 -7.609375 C 2.6875 -8.460938 3.800781 -8.890625 5.125 -8.890625 C 6.445312 -8.890625 7.554688 -8.460938 8.453125 -7.609375 C 9.359375 -6.753906 9.8125 -5.691406 9.8125 -4.421875 C 9.8125 -3.160156 9.359375 -2.097656 8.453125 -1.234375 C 7.554688 -0.367188 6.445312 0.0625 5.125 0.0625 C 3.800781 0.0625 2.6875 -0.367188 1.78125 -1.234375 C 0.882812 -2.097656 0.4375 -3.160156 0.4375 -4.421875 C 0.4375 -5.691406 0.882812 -6.753906 1.78125 -7.609375 Z M 5.125 -7.546875 C 4.25 -7.546875 3.5 -7.242188 2.875 -6.640625 C 2.257812 -6.035156 1.953125 -5.296875 1.953125 -4.421875 C 1.953125 -3.546875 2.265625 -2.800781 2.890625 -2.1875 C 3.515625 -1.582031 4.257812 -1.28125 5.125 -1.28125 C 6 -1.28125 6.742188 -1.582031 7.359375 -2.1875 C 7.972656 -2.800781 8.28125 -3.546875 8.28125 -4.421875 C 8.28125 -5.296875 7.972656 -6.035156 7.359375 -6.640625 C 6.742188 -7.242188 6 -7.546875 5.125 -7.546875 Z M 5.125 -7.546875 "/></g></g></g><g fill="#5ce1e6" fill-opacity="1"><g transform="translate(261.408456, 248.675667)"><g><path d="M 1.15625 -8.84375 L 4.6875 -8.84375 C 5.800781 -8.84375 6.660156 -8.578125 7.265625 -8.046875 C 7.878906 -7.523438 8.1875 -6.785156 8.1875 -5.828125 C 8.1875 -4.828125 7.878906 -4.050781 7.265625 -3.5 C 6.660156 -2.945312 5.800781 -2.671875 4.6875 -2.671875 L 2.65625 -2.671875 L 2.65625 0 L 1.15625 0 Z M 2.65625 -7.515625 L 2.65625 -4 L 4.625 -4 C 6.050781 -4 6.765625 -4.597656 6.765625 -5.796875 C 6.765625 -6.941406 6.050781 -7.515625 4.625 -7.515625 Z M 2.65625 -7.515625 "/></g></g></g><g fill="#5ce1e6" fill-opacity="1"><g transform="translate(273.307095, 248.675667)"><g><path d="M 7.484375 -7.515625 L 2.65625 -7.515625 L 2.65625 -5.125 L 6.984375 -5.125 L 6.984375 -3.78125 L 2.65625 -3.78125 L 2.65625 -1.34375 L 7.640625 -1.34375 L 7.640625 0 L 1.15625 0 L 1.15625 -8.84375 L 7.484375 -8.84375 Z M 7.484375 -7.515625 "/></g></g></g><g fill="#5ce1e6" fill-opacity="1"><g transform="translate(284.990779, 248.675667)"><g><path d="M 6.78125 0 L 5.15625 -2.6875 C 5.070312 -2.675781 4.9375 -2.671875 4.75 -2.671875 L 2.65625 -2.671875 L 2.65625 0 L 1.15625 0 L 1.15625 -8.84375 L 4.75 -8.84375 C 5.882812 -8.84375 6.757812 -8.578125 7.375 -8.046875 C 8 -7.523438 8.3125 -6.785156 8.3125 -5.828125 C 8.3125 -5.117188 8.15625 -4.519531 7.84375 -4.03125 C 7.53125 -3.539062 7.078125 -3.179688 6.484375 -2.953125 L 8.46875 0 Z M 2.65625 -4 L 4.75 -4 C 6.1875 -4 6.90625 -4.597656 6.90625 -5.796875 C 6.90625 -6.941406 6.1875 -7.515625 4.75 -7.515625 L 2.65625 -7.515625 Z M 2.65625 -4 "/></g></g></g><g clip-path="url(#4c3859b671)"><path fill="#ffffff" d="M 122.496094 226.972656 L 114.402344 226.972656 L 114.402344 216.394531 L 127.371094 216.394531 L 127.371094 211.582031 L 114.402344 211.582031 L 114.402344 211.5625 L 109.15625 211.5625 L 109.15625 231.8125 L 125.019531 231.8125 L 122.496094 226.972656 " fill-opacity="1" fill-rule="nonzero"/></g><g clip-path="url(#378316a731)"><path fill="#ffffff" d="M 121.367188 221.066406 L 126.972656 231.8125 L 131.640625 231.8125 L 126.03125 221.066406 L 121.367188 221.066406 " fill-opacity="1" fill-rule="nonzero"/></g><path fill="#ffffff" d="M 119.652344 225.015625 L 121.367188 225.015625 L 119.304688 221.066406 L 117.589844 221.066406 L 119.652344 225.015625 " fill-opacity="1" fill-rule="nonzero"/><g clip-path="url(#4deddcde50)"><path fill="#ffffff" d="M 131.644531 225.015625 L 129.585938 221.066406 L 127.871094 221.066406 L 129.929688 225.015625 L 131.644531 225.015625 " fill-opacity="1" fill-rule="nonzero"/></g></svg>